<?xml version="1.0" encoding="utf-8"?>
<!-- Generator: Adobe Illustrator 27.8.1, SVG Export Plug-In . SVG Version: 6.00 Build 0)  -->
<svg version="1.1" id="Réteg_1" xmlns="http://www.w3.org/2000/svg" xmlns:xlink="http://www.w3.org/1999/xlink" x="0px" y="0px"
	 viewBox="0 0 17 17" style="enable-background:new 0 0 17 17;" xml:space="preserve">
<style type="text/css">
	.st0{fill:#333333;}
	.st1{opacity:0.5;}
	.st2{clip-path:url(#SVGID_00000003064931456475139540000000829561041280266669_);}
	.st3{fill:#FFFFFF;}
</style>
<g>
	<path class="st0" d="M8.5,17L8.5,17C3.8,17,0,13.2,0,8.5l0,0C0,3.8,3.8,0,8.5,0l0,0C13.2,0,17,3.8,17,8.5l0,0
		C17,13.2,13.2,17,8.5,17z"/>
	<g class="st1">
		<g>
			<defs>
				<circle id="SVGID_1_" cx="8.5" cy="8.5" r="8.5"/>
			</defs>
			<clipPath id="SVGID_00000084507008220774491450000009453680336702206125_">
				<use xlink:href="#SVGID_1_"  style="overflow:visible;"/>
			</clipPath>
			<g style="clip-path:url(#SVGID_00000084507008220774491450000009453680336702206125_);">
				<g class="st1">
					<path class="st3" d="M3.2,30.4c1,3.2,3.5,6.8,8.8,9.8c1.1,0.6,2.5,0.2,3.1-0.9c0.6-1.1,0.2-2.5-0.9-3.1
						c-4.2-2.3-6.6-5.4-7.1-9.1c-0.1-0.5-0.1-1-0.1-1.5c2.7,2.3,7.2,5,13.1,5.6c1.2,0.1,2.3-0.8,2.5-2s-0.8-2.3-2-2.5
						c-5.1-0.5-8.9-3-11.1-4.9c2.3-0.6,6-0.8,10.9,1.5c1.1,0.5,2.5,0.1,3-1.1c0.5-1.1,0.1-2.5-1.1-3c-5.7-2.7-10.4-2.7-13.5-1.9
						c1-2.3,3.6-5.6,10.5-5.5c1.2,0,2.3-1,2.3-2.2c0-1.2-1-2.3-2.2-2.3c-6.9-0.1-11,2.6-13.3,5.7c0.1-0.8,0.2-1.6,0.5-2.5
						c0.9-2.4,2.9-4.4,6.1-5.7c1.1-0.5,1.7-1.8,1.2-3s-1.8-1.7-3-1.2C6.5,2.6,3.6,5.4,2.3,9.1c-0.4,1.2-0.7,2.5-0.7,3.7
						c-2.3-4.7-0.2-7.8,0-8c0.7-1,0.6-2.4-0.4-3.1C0.2,1-1.2,1.1-2,2.1c-0.2,0.3-2,2.6-2,6.4c0,1.2,0.2,2.6,0.7,4.2
						c0.3,1,0.8,2.1,1.5,3.2c-5.4-3.7-9.5-8.4-12.3-14.1c-2.7-5.6-3.1-10.1-3.1-10.1C-17.3-9-18-9.6-18.7-9.6
						c-0.8,0.1-1.3,0.7-1.3,1.5c0,0.1,0.2,2.7,1.4,6.3c0.5,1.4,1.1,3,1.9,4.7c2.3,4.7,6.5,10.9,14.2,15.9c-3.3,1.3-5.9,4.1-7.8,8.4
						c-0.2,0.5-0.2,1.1-0.1,1.6c0.2,0.6,0.6,1.1,1.2,1.4c1.1,0.5,2.5,0,3-1.1c1.3-3,3-5,5-5.9c-0.4,0.5-0.7,1.1-1,1.7
						C-4.8,30.7-1.9,38-1.8,38.3c0.5,1.2,1.8,1.7,2.9,1.2s1.7-1.8,1.2-2.9c0-0.1-2.3-5.8-0.4-9.8c0.1-0.3,0.3-0.6,0.5-0.8
						c0,0.5,0,1,0.1,1.5C2.6,28.3,2.8,29.3,3.2,30.4z"/>
					<circle class="st3" cx="4.3" cy="-2" r="2.8"/>
					<ellipse class="st3" cx="27.7" cy="26.4" rx="2.8" ry="2.8"/>
					<ellipse class="st3" cx="-10.1" cy="34.7" rx="2.8" ry="2.8"/>
				</g>
				<g class="st1">
					<path class="st3" d="M3.2-13.4c1-3.2,3.5-6.8,8.8-9.8c1.1-0.6,2.5-0.2,3.1,0.9c0.6,1.1,0.2,2.5-0.9,3.1
						c-4.2,2.3-6.6,5.4-7.1,9.1c-0.1,0.5-0.1,1-0.1,1.4c2.7-2.3,7.2-5,13.1-5.6c1.2-0.1,2.3,0.8,2.5,2s-0.8,2.3-2,2.5
						c-5.1,0.5-8.9,3.1-11.1,4.9c2.3,0.6,6,0.8,10.9-1.5c1.1-0.5,2.5-0.1,3,1.1c0.5,1.1,0.1,2.5-1.1,3C16.5,0.4,11.9,0.3,8.8-0.4
						c1,2.3,3.6,5.6,10.5,5.5c1.2,0,2.3,1,2.3,2.2c0,1.2-1,2.3-2.2,2.3C12.4,9.8,8.3,7,6.1,3.9c0.1,0.8,0.2,1.6,0.5,2.5
						c0.9,2.4,2.9,4.4,6.1,5.7c1.1,0.5,1.7,1.8,1.2,3s-1.8,1.7-3,1.2c-4.3-1.9-7.2-4.7-8.5-8.4C1.9,6.6,1.6,5.3,1.6,4.1
						c-2.3,4.7-0.2,7.8,0,8c0.8,1,0.6,2.4-0.4,3.1c-1,0.8-2.4,0.6-3.2-0.4c-0.2-0.3-2-2.6-2-6.4c0-1.2,0.2-2.6,0.7-4.2
						C-3,3.2-2.5,2.2-1.9,1c-5.4,3.7-9.5,8.4-12.3,14.1c-2.7,5.6-3.1,10.1-3.1,10.1c-0.1,0.8-0.7,1.3-1.5,1.3
						c-0.8,0-1.3-0.7-1.3-1.5c0-0.1,0.2-2.6,1.4-6.3c0.5-1.4,1.1-3,1.9-4.7c2.3-4.7,6.5-10.9,14.2-15.9c-3.3-1.3-5.9-4.2-7.8-8.4
						c-0.2-0.5-0.2-1.1-0.1-1.6c0.2-0.6,0.6-1.1,1.2-1.4c1.1-0.5,2.5,0,3,1.1c1.3,3,3,5,5,5.9c-0.4-0.5-0.7-1.1-1-1.7
						C-4.8-13.7-1.9-21-1.8-21.3c0.5-1.1,1.8-1.7,2.9-1.2c1.1,0.5,1.7,1.8,1.2,2.9c0,0.1-2.3,5.8-0.4,9.8C2.1-9.5,2.3-9.2,2.4-9
						c0-0.5,0-0.9,0.1-1.4C2.6-11.3,2.8-12.3,3.2-13.4z"/>
					<circle class="st3" cx="4.3" cy="19" r="2.8"/>
					<ellipse class="st3" cx="27.7" cy="-9.4" rx="2.8" ry="2.8"/>
					<ellipse class="st3" cx="-10.1" cy="-17.7" rx="2.8" ry="2.8"/>
				</g>
			</g>
		</g>
	</g>
	<g>
		<path class="st3" d="M7.7,12.9L5.5,9.6v3.4H3V5.2h2.4v3.3l2.2-3.3h2.8L7.8,8.9l2.9,4.1C10.6,13,7.7,13,7.7,12.9z"/>
		<path class="st3" d="M9.3,3.1v1.6l2.8-1V1.9L9.3,3.1z M10.6,13h2.8v-2h-2.8V13z M10.6,5.2v1.9h2.8V5.2H10.6z M13.1,8.1h-2.8v1.8
			h2.8V8.1z"/>
	</g>
</g>
</svg>
